G04 #@! TF.GenerationSoftware,KiCad,Pcbnew,no-vcs-found-885a4c1~58~ubuntu16.04.1*
G04 #@! TF.CreationDate,2017-07-09T23:46:33+02:00*
G04 #@! TF.ProjectId,esp03_ledbar,65737030335F6C65646261722E6B6963,rev?*
G04 #@! TF.SameCoordinates,Original
G04 #@! TF.FileFunction,Legend,Bot*
G04 #@! TF.FilePolarity,Positive*
%FSLAX46Y46*%
G04 Gerber Fmt 4.6, Leading zero omitted, Abs format (unit mm)*
G04 Created by KiCad (PCBNEW no-vcs-found-885a4c1~58~ubuntu16.04.1) date Sun Jul  9 23:46:33 2017*
%MOMM*%
%LPD*%
G01*
G04 APERTURE LIST*
%ADD10C,0.250000*%
%ADD11C,0.150000*%
%ADD12C,0.010000*%
%ADD13C,0.300000*%
G04 APERTURE END LIST*
D10*
X125785714Y-124452380D02*
X125785714Y-123452380D01*
X125547619Y-123452380D01*
X125404761Y-123500000D01*
X125309523Y-123595238D01*
X125261904Y-123690476D01*
X125214285Y-123880952D01*
X125214285Y-124023809D01*
X125261904Y-124214285D01*
X125309523Y-124309523D01*
X125404761Y-124404761D01*
X125547619Y-124452380D01*
X125785714Y-124452380D01*
X124595238Y-123452380D02*
X124404761Y-123452380D01*
X124309523Y-123500000D01*
X124214285Y-123595238D01*
X124166666Y-123785714D01*
X124166666Y-124119047D01*
X124214285Y-124309523D01*
X124309523Y-124404761D01*
X124404761Y-124452380D01*
X124595238Y-124452380D01*
X124690476Y-124404761D01*
X124785714Y-124309523D01*
X124833333Y-124119047D01*
X124833333Y-123785714D01*
X124785714Y-123595238D01*
X124690476Y-123500000D01*
X124595238Y-123452380D01*
X126785714Y-126571428D02*
X126023809Y-126571428D01*
X126404761Y-126952380D02*
X126404761Y-126190476D01*
X125071428Y-125952380D02*
X125547619Y-125952380D01*
X125595238Y-126428571D01*
X125547619Y-126380952D01*
X125452380Y-126333333D01*
X125214285Y-126333333D01*
X125119047Y-126380952D01*
X125071428Y-126428571D01*
X125023809Y-126523809D01*
X125023809Y-126761904D01*
X125071428Y-126857142D01*
X125119047Y-126904761D01*
X125214285Y-126952380D01*
X125452380Y-126952380D01*
X125547619Y-126904761D01*
X125595238Y-126857142D01*
X124738095Y-125952380D02*
X124404761Y-126952380D01*
X124071428Y-125952380D01*
X126261904Y-121000000D02*
X126357142Y-120952380D01*
X126500000Y-120952380D01*
X126642857Y-121000000D01*
X126738095Y-121095238D01*
X126785714Y-121190476D01*
X126833333Y-121380952D01*
X126833333Y-121523809D01*
X126785714Y-121714285D01*
X126738095Y-121809523D01*
X126642857Y-121904761D01*
X126500000Y-121952380D01*
X126404761Y-121952380D01*
X126261904Y-121904761D01*
X126214285Y-121857142D01*
X126214285Y-121523809D01*
X126404761Y-121523809D01*
X125785714Y-121952380D02*
X125785714Y-120952380D01*
X125214285Y-121952380D01*
X125214285Y-120952380D01*
X124738095Y-121952380D02*
X124738095Y-120952380D01*
X124500000Y-120952380D01*
X124357142Y-121000000D01*
X124261904Y-121095238D01*
X124214285Y-121190476D01*
X124166666Y-121380952D01*
X124166666Y-121523809D01*
X124214285Y-121714285D01*
X124261904Y-121809523D01*
X124357142Y-121904761D01*
X124500000Y-121952380D01*
X124738095Y-121952380D01*
D11*
X123770000Y-122770000D02*
X123770000Y-127850000D01*
X123770000Y-127850000D02*
X121230000Y-127850000D01*
X121230000Y-127850000D02*
X121230000Y-122770000D01*
X120950000Y-119950000D02*
X120950000Y-121500000D01*
X121230000Y-122770000D02*
X123770000Y-122770000D01*
X124050000Y-121500000D02*
X124050000Y-119950000D01*
X124050000Y-119950000D02*
X120950000Y-119950000D01*
D12*
G36*
X157400256Y-129419918D02*
X157344799Y-129447568D01*
X157295852Y-129498480D01*
X157282371Y-129517338D01*
X157267686Y-129542015D01*
X157258158Y-129568816D01*
X157252707Y-129604587D01*
X157250253Y-129656169D01*
X157249714Y-129724267D01*
X157252148Y-129817588D01*
X157260606Y-129887657D01*
X157276826Y-129939931D01*
X157302546Y-129979869D01*
X157339503Y-130012929D01*
X157342218Y-130014886D01*
X157378640Y-130034908D01*
X157422498Y-130044815D01*
X157478276Y-130047257D01*
X157568952Y-130047257D01*
X157568990Y-130135283D01*
X157569834Y-130184308D01*
X157574976Y-130213065D01*
X157588413Y-130230311D01*
X157614142Y-130244808D01*
X157620321Y-130247769D01*
X157649236Y-130261648D01*
X157671624Y-130270414D01*
X157688271Y-130271171D01*
X157699964Y-130261023D01*
X157707490Y-130237073D01*
X157711634Y-130196426D01*
X157713185Y-130136186D01*
X157712929Y-130053455D01*
X157711651Y-129945339D01*
X157711252Y-129913000D01*
X157709815Y-129801524D01*
X157708528Y-129728603D01*
X157569029Y-129728603D01*
X157568245Y-129790499D01*
X157564760Y-129830997D01*
X157556876Y-129857708D01*
X157542895Y-129878244D01*
X157533403Y-129888260D01*
X157494596Y-129917567D01*
X157460237Y-129919952D01*
X157424784Y-129895750D01*
X157423886Y-129894857D01*
X157409461Y-129876153D01*
X157400687Y-129850732D01*
X157396261Y-129811584D01*
X157394882Y-129751697D01*
X157394857Y-129738430D01*
X157398188Y-129655901D01*
X157409031Y-129598691D01*
X157428660Y-129563766D01*
X157458350Y-129548094D01*
X157475509Y-129546514D01*
X157516234Y-129553926D01*
X157544168Y-129578330D01*
X157560983Y-129622980D01*
X157568350Y-129691130D01*
X157569029Y-129728603D01*
X157708528Y-129728603D01*
X157708292Y-129715245D01*
X157706323Y-129650333D01*
X157703550Y-129602958D01*
X157699612Y-129569290D01*
X157694151Y-129545498D01*
X157686808Y-129527753D01*
X157677223Y-129512224D01*
X157673113Y-129506381D01*
X157618595Y-129451185D01*
X157549664Y-129419890D01*
X157469928Y-129411165D01*
X157400256Y-129419918D01*
X157400256Y-129419918D01*
G37*
X157400256Y-129419918D02*
X157344799Y-129447568D01*
X157295852Y-129498480D01*
X157282371Y-129517338D01*
X157267686Y-129542015D01*
X157258158Y-129568816D01*
X157252707Y-129604587D01*
X157250253Y-129656169D01*
X157249714Y-129724267D01*
X157252148Y-129817588D01*
X157260606Y-129887657D01*
X157276826Y-129939931D01*
X157302546Y-129979869D01*
X157339503Y-130012929D01*
X157342218Y-130014886D01*
X157378640Y-130034908D01*
X157422498Y-130044815D01*
X157478276Y-130047257D01*
X157568952Y-130047257D01*
X157568990Y-130135283D01*
X157569834Y-130184308D01*
X157574976Y-130213065D01*
X157588413Y-130230311D01*
X157614142Y-130244808D01*
X157620321Y-130247769D01*
X157649236Y-130261648D01*
X157671624Y-130270414D01*
X157688271Y-130271171D01*
X157699964Y-130261023D01*
X157707490Y-130237073D01*
X157711634Y-130196426D01*
X157713185Y-130136186D01*
X157712929Y-130053455D01*
X157711651Y-129945339D01*
X157711252Y-129913000D01*
X157709815Y-129801524D01*
X157708528Y-129728603D01*
X157569029Y-129728603D01*
X157568245Y-129790499D01*
X157564760Y-129830997D01*
X157556876Y-129857708D01*
X157542895Y-129878244D01*
X157533403Y-129888260D01*
X157494596Y-129917567D01*
X157460237Y-129919952D01*
X157424784Y-129895750D01*
X157423886Y-129894857D01*
X157409461Y-129876153D01*
X157400687Y-129850732D01*
X157396261Y-129811584D01*
X157394882Y-129751697D01*
X157394857Y-129738430D01*
X157398188Y-129655901D01*
X157409031Y-129598691D01*
X157428660Y-129563766D01*
X157458350Y-129548094D01*
X157475509Y-129546514D01*
X157516234Y-129553926D01*
X157544168Y-129578330D01*
X157560983Y-129622980D01*
X157568350Y-129691130D01*
X157569029Y-129728603D01*
X157708528Y-129728603D01*
X157708292Y-129715245D01*
X157706323Y-129650333D01*
X157703550Y-129602958D01*
X157699612Y-129569290D01*
X157694151Y-129545498D01*
X157686808Y-129527753D01*
X157677223Y-129512224D01*
X157673113Y-129506381D01*
X157618595Y-129451185D01*
X157549664Y-129419890D01*
X157469928Y-129411165D01*
X157400256Y-129419918D01*
G36*
X156283907Y-129427780D02*
X156237328Y-129454723D01*
X156204943Y-129481466D01*
X156181258Y-129509484D01*
X156164941Y-129543748D01*
X156154661Y-129589227D01*
X156149086Y-129650892D01*
X156146884Y-129733711D01*
X156146629Y-129793246D01*
X156146629Y-130012391D01*
X156208314Y-130040044D01*
X156270000Y-130067697D01*
X156277257Y-129827670D01*
X156280256Y-129738028D01*
X156283402Y-129672962D01*
X156287299Y-129628026D01*
X156292553Y-129598770D01*
X156299769Y-129580748D01*
X156309550Y-129569511D01*
X156312688Y-129567079D01*
X156360239Y-129548083D01*
X156408303Y-129555600D01*
X156436914Y-129575543D01*
X156448553Y-129589675D01*
X156456609Y-129608220D01*
X156461729Y-129636334D01*
X156464559Y-129679173D01*
X156465744Y-129741895D01*
X156465943Y-129807261D01*
X156465982Y-129889268D01*
X156467386Y-129947316D01*
X156472086Y-129986465D01*
X156482013Y-130011780D01*
X156499097Y-130028323D01*
X156525268Y-130041156D01*
X156560225Y-130054491D01*
X156598404Y-130069007D01*
X156593859Y-129811389D01*
X156592029Y-129718519D01*
X156589888Y-129649889D01*
X156586819Y-129600711D01*
X156582206Y-129566198D01*
X156575432Y-129541562D01*
X156565881Y-129522016D01*
X156554366Y-129504770D01*
X156498810Y-129449680D01*
X156431020Y-129417822D01*
X156357287Y-129410191D01*
X156283907Y-129427780D01*
X156283907Y-129427780D01*
G37*
X156283907Y-129427780D02*
X156237328Y-129454723D01*
X156204943Y-129481466D01*
X156181258Y-129509484D01*
X156164941Y-129543748D01*
X156154661Y-129589227D01*
X156149086Y-129650892D01*
X156146884Y-129733711D01*
X156146629Y-129793246D01*
X156146629Y-130012391D01*
X156208314Y-130040044D01*
X156270000Y-130067697D01*
X156277257Y-129827670D01*
X156280256Y-129738028D01*
X156283402Y-129672962D01*
X156287299Y-129628026D01*
X156292553Y-129598770D01*
X156299769Y-129580748D01*
X156309550Y-129569511D01*
X156312688Y-129567079D01*
X156360239Y-129548083D01*
X156408303Y-129555600D01*
X156436914Y-129575543D01*
X156448553Y-129589675D01*
X156456609Y-129608220D01*
X156461729Y-129636334D01*
X156464559Y-129679173D01*
X156465744Y-129741895D01*
X156465943Y-129807261D01*
X156465982Y-129889268D01*
X156467386Y-129947316D01*
X156472086Y-129986465D01*
X156482013Y-130011780D01*
X156499097Y-130028323D01*
X156525268Y-130041156D01*
X156560225Y-130054491D01*
X156598404Y-130069007D01*
X156593859Y-129811389D01*
X156592029Y-129718519D01*
X156589888Y-129649889D01*
X156586819Y-129600711D01*
X156582206Y-129566198D01*
X156575432Y-129541562D01*
X156565881Y-129522016D01*
X156554366Y-129504770D01*
X156498810Y-129449680D01*
X156431020Y-129417822D01*
X156357287Y-129410191D01*
X156283907Y-129427780D01*
G36*
X157958885Y-129421962D02*
X157890855Y-129457733D01*
X157840649Y-129515301D01*
X157822815Y-129552312D01*
X157808937Y-129607882D01*
X157801833Y-129678096D01*
X157801160Y-129754727D01*
X157806573Y-129829552D01*
X157817730Y-129894342D01*
X157834286Y-129940873D01*
X157839374Y-129948887D01*
X157899645Y-130008707D01*
X157971231Y-130044535D01*
X158048908Y-130055020D01*
X158127452Y-130038810D01*
X158149311Y-130029092D01*
X158191878Y-129999143D01*
X158229237Y-129959433D01*
X158232768Y-129954397D01*
X158247119Y-129930124D01*
X158256606Y-129904178D01*
X158262210Y-129870022D01*
X158264914Y-129821119D01*
X158265701Y-129750935D01*
X158265714Y-129735200D01*
X158265678Y-129730192D01*
X158120571Y-129730192D01*
X158119727Y-129796430D01*
X158116404Y-129840386D01*
X158109417Y-129868779D01*
X158097584Y-129888325D01*
X158091543Y-129894857D01*
X158056814Y-129919680D01*
X158023097Y-129918548D01*
X157989005Y-129897016D01*
X157968671Y-129874029D01*
X157956629Y-129840478D01*
X157949866Y-129787569D01*
X157949402Y-129781399D01*
X157948248Y-129685513D01*
X157960312Y-129614299D01*
X157985430Y-129568194D01*
X158023440Y-129547635D01*
X158037008Y-129546514D01*
X158072636Y-129552152D01*
X158097006Y-129571686D01*
X158111907Y-129609042D01*
X158119125Y-129668150D01*
X158120571Y-129730192D01*
X158265678Y-129730192D01*
X158265174Y-129660413D01*
X158262904Y-129608159D01*
X158257932Y-129571949D01*
X158249287Y-129545299D01*
X158235995Y-129521722D01*
X158233057Y-129517338D01*
X158183687Y-129458249D01*
X158129891Y-129423947D01*
X158064398Y-129410331D01*
X158042158Y-129409665D01*
X157958885Y-129421962D01*
X157958885Y-129421962D01*
G37*
X157958885Y-129421962D02*
X157890855Y-129457733D01*
X157840649Y-129515301D01*
X157822815Y-129552312D01*
X157808937Y-129607882D01*
X157801833Y-129678096D01*
X157801160Y-129754727D01*
X157806573Y-129829552D01*
X157817730Y-129894342D01*
X157834286Y-129940873D01*
X157839374Y-129948887D01*
X157899645Y-130008707D01*
X157971231Y-130044535D01*
X158048908Y-130055020D01*
X158127452Y-130038810D01*
X158149311Y-130029092D01*
X158191878Y-129999143D01*
X158229237Y-129959433D01*
X158232768Y-129954397D01*
X158247119Y-129930124D01*
X158256606Y-129904178D01*
X158262210Y-129870022D01*
X158264914Y-129821119D01*
X158265701Y-129750935D01*
X158265714Y-129735200D01*
X158265678Y-129730192D01*
X158120571Y-129730192D01*
X158119727Y-129796430D01*
X158116404Y-129840386D01*
X158109417Y-129868779D01*
X158097584Y-129888325D01*
X158091543Y-129894857D01*
X158056814Y-129919680D01*
X158023097Y-129918548D01*
X157989005Y-129897016D01*
X157968671Y-129874029D01*
X157956629Y-129840478D01*
X157949866Y-129787569D01*
X157949402Y-129781399D01*
X157948248Y-129685513D01*
X157960312Y-129614299D01*
X157985430Y-129568194D01*
X158023440Y-129547635D01*
X158037008Y-129546514D01*
X158072636Y-129552152D01*
X158097006Y-129571686D01*
X158111907Y-129609042D01*
X158119125Y-129668150D01*
X158120571Y-129730192D01*
X158265678Y-129730192D01*
X158265174Y-129660413D01*
X158262904Y-129608159D01*
X158257932Y-129571949D01*
X158249287Y-129545299D01*
X158235995Y-129521722D01*
X158233057Y-129517338D01*
X158183687Y-129458249D01*
X158129891Y-129423947D01*
X158064398Y-129410331D01*
X158042158Y-129409665D01*
X157958885Y-129421962D01*
G36*
X156831697Y-129431239D02*
X156774473Y-129469735D01*
X156730251Y-129525335D01*
X156703833Y-129596086D01*
X156698490Y-129648162D01*
X156699097Y-129669893D01*
X156704178Y-129686531D01*
X156718145Y-129701437D01*
X156745411Y-129717973D01*
X156790388Y-129739498D01*
X156857489Y-129769374D01*
X156857829Y-129769524D01*
X156919593Y-129797813D01*
X156970241Y-129822933D01*
X157004596Y-129842179D01*
X157017482Y-129852848D01*
X157017486Y-129852934D01*
X157006128Y-129876166D01*
X156979569Y-129901774D01*
X156949077Y-129920221D01*
X156933630Y-129923886D01*
X156891485Y-129911212D01*
X156855192Y-129879471D01*
X156837483Y-129844572D01*
X156820448Y-129818845D01*
X156787078Y-129789546D01*
X156747851Y-129764235D01*
X156713244Y-129750471D01*
X156706007Y-129749714D01*
X156697861Y-129762160D01*
X156697370Y-129793972D01*
X156703357Y-129836866D01*
X156714643Y-129882558D01*
X156730050Y-129922761D01*
X156730829Y-129924322D01*
X156777196Y-129989062D01*
X156837289Y-130033097D01*
X156905535Y-130054711D01*
X156976362Y-130052185D01*
X157044196Y-130023804D01*
X157047212Y-130021808D01*
X157100573Y-129973448D01*
X157135660Y-129910352D01*
X157155078Y-129827387D01*
X157157684Y-129804078D01*
X157162299Y-129694055D01*
X157156767Y-129642748D01*
X157017486Y-129642748D01*
X157015676Y-129674753D01*
X157005778Y-129684093D01*
X156981102Y-129677105D01*
X156942205Y-129660587D01*
X156898725Y-129639881D01*
X156897644Y-129639333D01*
X156860791Y-129619949D01*
X156846000Y-129607013D01*
X156849647Y-129593451D01*
X156865005Y-129575632D01*
X156904077Y-129549845D01*
X156946154Y-129547950D01*
X156983897Y-129566717D01*
X157009966Y-129602915D01*
X157017486Y-129642748D01*
X157156767Y-129642748D01*
X157152806Y-129606027D01*
X157128450Y-129536212D01*
X157094544Y-129487302D01*
X157033347Y-129437878D01*
X156965937Y-129413359D01*
X156897120Y-129411797D01*
X156831697Y-129431239D01*
X156831697Y-129431239D01*
G37*
X156831697Y-129431239D02*
X156774473Y-129469735D01*
X156730251Y-129525335D01*
X156703833Y-129596086D01*
X156698490Y-129648162D01*
X156699097Y-129669893D01*
X156704178Y-129686531D01*
X156718145Y-129701437D01*
X156745411Y-129717973D01*
X156790388Y-129739498D01*
X156857489Y-129769374D01*
X156857829Y-129769524D01*
X156919593Y-129797813D01*
X156970241Y-129822933D01*
X157004596Y-129842179D01*
X157017482Y-129852848D01*
X157017486Y-129852934D01*
X157006128Y-129876166D01*
X156979569Y-129901774D01*
X156949077Y-129920221D01*
X156933630Y-129923886D01*
X156891485Y-129911212D01*
X156855192Y-129879471D01*
X156837483Y-129844572D01*
X156820448Y-129818845D01*
X156787078Y-129789546D01*
X156747851Y-129764235D01*
X156713244Y-129750471D01*
X156706007Y-129749714D01*
X156697861Y-129762160D01*
X156697370Y-129793972D01*
X156703357Y-129836866D01*
X156714643Y-129882558D01*
X156730050Y-129922761D01*
X156730829Y-129924322D01*
X156777196Y-129989062D01*
X156837289Y-130033097D01*
X156905535Y-130054711D01*
X156976362Y-130052185D01*
X157044196Y-130023804D01*
X157047212Y-130021808D01*
X157100573Y-129973448D01*
X157135660Y-129910352D01*
X157155078Y-129827387D01*
X157157684Y-129804078D01*
X157162299Y-129694055D01*
X157156767Y-129642748D01*
X157017486Y-129642748D01*
X157015676Y-129674753D01*
X157005778Y-129684093D01*
X156981102Y-129677105D01*
X156942205Y-129660587D01*
X156898725Y-129639881D01*
X156897644Y-129639333D01*
X156860791Y-129619949D01*
X156846000Y-129607013D01*
X156849647Y-129593451D01*
X156865005Y-129575632D01*
X156904077Y-129549845D01*
X156946154Y-129547950D01*
X156983897Y-129566717D01*
X157009966Y-129602915D01*
X157017486Y-129642748D01*
X157156767Y-129642748D01*
X157152806Y-129606027D01*
X157128450Y-129536212D01*
X157094544Y-129487302D01*
X157033347Y-129437878D01*
X156965937Y-129413359D01*
X156897120Y-129411797D01*
X156831697Y-129431239D01*
G36*
X155624114Y-129351289D02*
X155619861Y-129410613D01*
X155614975Y-129445572D01*
X155608205Y-129460820D01*
X155598298Y-129461015D01*
X155595086Y-129459195D01*
X155552356Y-129446015D01*
X155496773Y-129446785D01*
X155440263Y-129460333D01*
X155404918Y-129477861D01*
X155368679Y-129505861D01*
X155342187Y-129537549D01*
X155324001Y-129577813D01*
X155312678Y-129631543D01*
X155306778Y-129703626D01*
X155304857Y-129798951D01*
X155304823Y-129817237D01*
X155304800Y-130022646D01*
X155350509Y-130038580D01*
X155382973Y-130049420D01*
X155400785Y-130054468D01*
X155401309Y-130054514D01*
X155403063Y-130040828D01*
X155404556Y-130003076D01*
X155405674Y-129946224D01*
X155406303Y-129875234D01*
X155406400Y-129832073D01*
X155406602Y-129746973D01*
X155407642Y-129685981D01*
X155410169Y-129644177D01*
X155414836Y-129616642D01*
X155422293Y-129598456D01*
X155433189Y-129584698D01*
X155439993Y-129578073D01*
X155486728Y-129551375D01*
X155537728Y-129549375D01*
X155583999Y-129571955D01*
X155592556Y-129580107D01*
X155605107Y-129595436D01*
X155613812Y-129613618D01*
X155619369Y-129639909D01*
X155622474Y-129679562D01*
X155623824Y-129737832D01*
X155624114Y-129818173D01*
X155624114Y-130022646D01*
X155669823Y-130038580D01*
X155702287Y-130049420D01*
X155720099Y-130054468D01*
X155720623Y-130054514D01*
X155721963Y-130040623D01*
X155723172Y-130001439D01*
X155724199Y-129940700D01*
X155724998Y-129862141D01*
X155725519Y-129769498D01*
X155725714Y-129666509D01*
X155725714Y-129269342D01*
X155678543Y-129249444D01*
X155631371Y-129229547D01*
X155624114Y-129351289D01*
X155624114Y-129351289D01*
G37*
X155624114Y-129351289D02*
X155619861Y-129410613D01*
X155614975Y-129445572D01*
X155608205Y-129460820D01*
X155598298Y-129461015D01*
X155595086Y-129459195D01*
X155552356Y-129446015D01*
X155496773Y-129446785D01*
X155440263Y-129460333D01*
X155404918Y-129477861D01*
X155368679Y-129505861D01*
X155342187Y-129537549D01*
X155324001Y-129577813D01*
X155312678Y-129631543D01*
X155306778Y-129703626D01*
X155304857Y-129798951D01*
X155304823Y-129817237D01*
X155304800Y-130022646D01*
X155350509Y-130038580D01*
X155382973Y-130049420D01*
X155400785Y-130054468D01*
X155401309Y-130054514D01*
X155403063Y-130040828D01*
X155404556Y-130003076D01*
X155405674Y-129946224D01*
X155406303Y-129875234D01*
X155406400Y-129832073D01*
X155406602Y-129746973D01*
X155407642Y-129685981D01*
X155410169Y-129644177D01*
X155414836Y-129616642D01*
X155422293Y-129598456D01*
X155433189Y-129584698D01*
X155439993Y-129578073D01*
X155486728Y-129551375D01*
X155537728Y-129549375D01*
X155583999Y-129571955D01*
X155592556Y-129580107D01*
X155605107Y-129595436D01*
X155613812Y-129613618D01*
X155619369Y-129639909D01*
X155622474Y-129679562D01*
X155623824Y-129737832D01*
X155624114Y-129818173D01*
X155624114Y-130022646D01*
X155669823Y-130038580D01*
X155702287Y-130049420D01*
X155720099Y-130054468D01*
X155720623Y-130054514D01*
X155721963Y-130040623D01*
X155723172Y-130001439D01*
X155724199Y-129940700D01*
X155724998Y-129862141D01*
X155725519Y-129769498D01*
X155725714Y-129666509D01*
X155725714Y-129269342D01*
X155678543Y-129249444D01*
X155631371Y-129229547D01*
X155624114Y-129351289D01*
G36*
X154960256Y-129450968D02*
X154903384Y-129472087D01*
X154902733Y-129472493D01*
X154867560Y-129498380D01*
X154841593Y-129528633D01*
X154823330Y-129568058D01*
X154811268Y-129621462D01*
X154803904Y-129693651D01*
X154799736Y-129789432D01*
X154799371Y-129803078D01*
X154794124Y-130008842D01*
X154838284Y-130031678D01*
X154870237Y-130047110D01*
X154889530Y-130054423D01*
X154890422Y-130054514D01*
X154893761Y-130041022D01*
X154896413Y-130004626D01*
X154898044Y-129951452D01*
X154898400Y-129908393D01*
X154898408Y-129838641D01*
X154901597Y-129794837D01*
X154912712Y-129773944D01*
X154936499Y-129772925D01*
X154977704Y-129788741D01*
X155039914Y-129817815D01*
X155085659Y-129841963D01*
X155109187Y-129862913D01*
X155116104Y-129885747D01*
X155116114Y-129886877D01*
X155104701Y-129926212D01*
X155070908Y-129947462D01*
X155019191Y-129950539D01*
X154981939Y-129950006D01*
X154962297Y-129960735D01*
X154950048Y-129986505D01*
X154942998Y-130019337D01*
X154953158Y-130037966D01*
X154956983Y-130040632D01*
X154992999Y-130051340D01*
X155043434Y-130052856D01*
X155095374Y-130045759D01*
X155132178Y-130032788D01*
X155183062Y-129989585D01*
X155211986Y-129929446D01*
X155217714Y-129882462D01*
X155213343Y-129840082D01*
X155197525Y-129805488D01*
X155166203Y-129774763D01*
X155115322Y-129743990D01*
X155040824Y-129709252D01*
X155036286Y-129707288D01*
X154969179Y-129676287D01*
X154927768Y-129650862D01*
X154910019Y-129628014D01*
X154913893Y-129604745D01*
X154937357Y-129578056D01*
X154944373Y-129571914D01*
X154991370Y-129548100D01*
X155040067Y-129549103D01*
X155082478Y-129572451D01*
X155110616Y-129615675D01*
X155113231Y-129624160D01*
X155138692Y-129665308D01*
X155170999Y-129685128D01*
X155217714Y-129704770D01*
X155217714Y-129653950D01*
X155203504Y-129580082D01*
X155161325Y-129512327D01*
X155139376Y-129489661D01*
X155089483Y-129460569D01*
X155026033Y-129447400D01*
X154960256Y-129450968D01*
X154960256Y-129450968D01*
G37*
X154960256Y-129450968D02*
X154903384Y-129472087D01*
X154902733Y-129472493D01*
X154867560Y-129498380D01*
X154841593Y-129528633D01*
X154823330Y-129568058D01*
X154811268Y-129621462D01*
X154803904Y-129693651D01*
X154799736Y-129789432D01*
X154799371Y-129803078D01*
X154794124Y-130008842D01*
X154838284Y-130031678D01*
X154870237Y-130047110D01*
X154889530Y-130054423D01*
X154890422Y-130054514D01*
X154893761Y-130041022D01*
X154896413Y-130004626D01*
X154898044Y-129951452D01*
X154898400Y-129908393D01*
X154898408Y-129838641D01*
X154901597Y-129794837D01*
X154912712Y-129773944D01*
X154936499Y-129772925D01*
X154977704Y-129788741D01*
X155039914Y-129817815D01*
X155085659Y-129841963D01*
X155109187Y-129862913D01*
X155116104Y-129885747D01*
X155116114Y-129886877D01*
X155104701Y-129926212D01*
X155070908Y-129947462D01*
X155019191Y-129950539D01*
X154981939Y-129950006D01*
X154962297Y-129960735D01*
X154950048Y-129986505D01*
X154942998Y-130019337D01*
X154953158Y-130037966D01*
X154956983Y-130040632D01*
X154992999Y-130051340D01*
X155043434Y-130052856D01*
X155095374Y-130045759D01*
X155132178Y-130032788D01*
X155183062Y-129989585D01*
X155211986Y-129929446D01*
X155217714Y-129882462D01*
X155213343Y-129840082D01*
X155197525Y-129805488D01*
X155166203Y-129774763D01*
X155115322Y-129743990D01*
X155040824Y-129709252D01*
X155036286Y-129707288D01*
X154969179Y-129676287D01*
X154927768Y-129650862D01*
X154910019Y-129628014D01*
X154913893Y-129604745D01*
X154937357Y-129578056D01*
X154944373Y-129571914D01*
X154991370Y-129548100D01*
X155040067Y-129549103D01*
X155082478Y-129572451D01*
X155110616Y-129615675D01*
X155113231Y-129624160D01*
X155138692Y-129665308D01*
X155170999Y-129685128D01*
X155217714Y-129704770D01*
X155217714Y-129653950D01*
X155203504Y-129580082D01*
X155161325Y-129512327D01*
X155139376Y-129489661D01*
X155089483Y-129460569D01*
X155026033Y-129447400D01*
X154960256Y-129450968D01*
G36*
X154470074Y-129449755D02*
X154404142Y-129474084D01*
X154350727Y-129517117D01*
X154329836Y-129547409D01*
X154307061Y-129602994D01*
X154307534Y-129643186D01*
X154331438Y-129670217D01*
X154340283Y-129674813D01*
X154378470Y-129689144D01*
X154397972Y-129685472D01*
X154404578Y-129661407D01*
X154404914Y-129648114D01*
X154417008Y-129599210D01*
X154448529Y-129564999D01*
X154492341Y-129548476D01*
X154541305Y-129552634D01*
X154581106Y-129574227D01*
X154594550Y-129586544D01*
X154604079Y-129601487D01*
X154610515Y-129624075D01*
X154614683Y-129659328D01*
X154617403Y-129712266D01*
X154619498Y-129787907D01*
X154620040Y-129811857D01*
X154622019Y-129893790D01*
X154624269Y-129951455D01*
X154627643Y-129989608D01*
X154632994Y-130013004D01*
X154641176Y-130026398D01*
X154653041Y-130034545D01*
X154660638Y-130038144D01*
X154692898Y-130050452D01*
X154711889Y-130054514D01*
X154718164Y-130040948D01*
X154721994Y-129999934D01*
X154723400Y-129930999D01*
X154722402Y-129833669D01*
X154722092Y-129818657D01*
X154719899Y-129729859D01*
X154717307Y-129665019D01*
X154713618Y-129619067D01*
X154708136Y-129586935D01*
X154700165Y-129563553D01*
X154689007Y-129543852D01*
X154683170Y-129535410D01*
X154649704Y-129498057D01*
X154612273Y-129469003D01*
X154607691Y-129466467D01*
X154540574Y-129446443D01*
X154470074Y-129449755D01*
X154470074Y-129449755D01*
G37*
X154470074Y-129449755D02*
X154404142Y-129474084D01*
X154350727Y-129517117D01*
X154329836Y-129547409D01*
X154307061Y-129602994D01*
X154307534Y-129643186D01*
X154331438Y-129670217D01*
X154340283Y-129674813D01*
X154378470Y-129689144D01*
X154397972Y-129685472D01*
X154404578Y-129661407D01*
X154404914Y-129648114D01*
X154417008Y-129599210D01*
X154448529Y-129564999D01*
X154492341Y-129548476D01*
X154541305Y-129552634D01*
X154581106Y-129574227D01*
X154594550Y-129586544D01*
X154604079Y-129601487D01*
X154610515Y-129624075D01*
X154614683Y-129659328D01*
X154617403Y-129712266D01*
X154619498Y-129787907D01*
X154620040Y-129811857D01*
X154622019Y-129893790D01*
X154624269Y-129951455D01*
X154627643Y-129989608D01*
X154632994Y-130013004D01*
X154641176Y-130026398D01*
X154653041Y-130034545D01*
X154660638Y-130038144D01*
X154692898Y-130050452D01*
X154711889Y-130054514D01*
X154718164Y-130040948D01*
X154721994Y-129999934D01*
X154723400Y-129930999D01*
X154722402Y-129833669D01*
X154722092Y-129818657D01*
X154719899Y-129729859D01*
X154717307Y-129665019D01*
X154713618Y-129619067D01*
X154708136Y-129586935D01*
X154700165Y-129563553D01*
X154689007Y-129543852D01*
X154683170Y-129535410D01*
X154649704Y-129498057D01*
X154612273Y-129469003D01*
X154607691Y-129466467D01*
X154540574Y-129446443D01*
X154470074Y-129449755D01*
G36*
X153809883Y-129565358D02*
X153810067Y-129673837D01*
X153810781Y-129757287D01*
X153812325Y-129819704D01*
X153814999Y-129865085D01*
X153819106Y-129897429D01*
X153824945Y-129920733D01*
X153832818Y-129938995D01*
X153838779Y-129949418D01*
X153888145Y-130005945D01*
X153950736Y-130041377D01*
X154019987Y-130054090D01*
X154089332Y-130042463D01*
X154130625Y-130021568D01*
X154173975Y-129985422D01*
X154203519Y-129941276D01*
X154221345Y-129883462D01*
X154229537Y-129806313D01*
X154230698Y-129749714D01*
X154230542Y-129745647D01*
X154129143Y-129745647D01*
X154128524Y-129810550D01*
X154125686Y-129853514D01*
X154119160Y-129881622D01*
X154107477Y-129901953D01*
X154093517Y-129917288D01*
X154046635Y-129946890D01*
X153996299Y-129949419D01*
X153948724Y-129924705D01*
X153945021Y-129921356D01*
X153929217Y-129903935D01*
X153919307Y-129883209D01*
X153913942Y-129852362D01*
X153911772Y-129804577D01*
X153911429Y-129751748D01*
X153912173Y-129685381D01*
X153915252Y-129641106D01*
X153921939Y-129612009D01*
X153933504Y-129591173D01*
X153942987Y-129580107D01*
X153987040Y-129552198D01*
X154037776Y-129548843D01*
X154086204Y-129570159D01*
X154095550Y-129578073D01*
X154111460Y-129595647D01*
X154121390Y-129616587D01*
X154126722Y-129647782D01*
X154128837Y-129696122D01*
X154129143Y-129745647D01*
X154230542Y-129745647D01*
X154227190Y-129658568D01*
X154215274Y-129590086D01*
X154192865Y-129538600D01*
X154157876Y-129498443D01*
X154130625Y-129477861D01*
X154081093Y-129455625D01*
X154023684Y-129445304D01*
X153970318Y-129448067D01*
X153940457Y-129459212D01*
X153928739Y-129462383D01*
X153920963Y-129450557D01*
X153915535Y-129418866D01*
X153911429Y-129370593D01*
X153906933Y-129316829D01*
X153900687Y-129284482D01*
X153889324Y-129265985D01*
X153869472Y-129253770D01*
X153857000Y-129248362D01*
X153809829Y-129228601D01*
X153809883Y-129565358D01*
X153809883Y-129565358D01*
G37*
X153809883Y-129565358D02*
X153810067Y-129673837D01*
X153810781Y-129757287D01*
X153812325Y-129819704D01*
X153814999Y-129865085D01*
X153819106Y-129897429D01*
X153824945Y-129920733D01*
X153832818Y-129938995D01*
X153838779Y-129949418D01*
X153888145Y-130005945D01*
X153950736Y-130041377D01*
X154019987Y-130054090D01*
X154089332Y-130042463D01*
X154130625Y-130021568D01*
X154173975Y-129985422D01*
X154203519Y-129941276D01*
X154221345Y-129883462D01*
X154229537Y-129806313D01*
X154230698Y-129749714D01*
X154230542Y-129745647D01*
X154129143Y-129745647D01*
X154128524Y-129810550D01*
X154125686Y-129853514D01*
X154119160Y-129881622D01*
X154107477Y-129901953D01*
X154093517Y-129917288D01*
X154046635Y-129946890D01*
X153996299Y-129949419D01*
X153948724Y-129924705D01*
X153945021Y-129921356D01*
X153929217Y-129903935D01*
X153919307Y-129883209D01*
X153913942Y-129852362D01*
X153911772Y-129804577D01*
X153911429Y-129751748D01*
X153912173Y-129685381D01*
X153915252Y-129641106D01*
X153921939Y-129612009D01*
X153933504Y-129591173D01*
X153942987Y-129580107D01*
X153987040Y-129552198D01*
X154037776Y-129548843D01*
X154086204Y-129570159D01*
X154095550Y-129578073D01*
X154111460Y-129595647D01*
X154121390Y-129616587D01*
X154126722Y-129647782D01*
X154128837Y-129696122D01*
X154129143Y-129745647D01*
X154230542Y-129745647D01*
X154227190Y-129658568D01*
X154215274Y-129590086D01*
X154192865Y-129538600D01*
X154157876Y-129498443D01*
X154130625Y-129477861D01*
X154081093Y-129455625D01*
X154023684Y-129445304D01*
X153970318Y-129448067D01*
X153940457Y-129459212D01*
X153928739Y-129462383D01*
X153920963Y-129450557D01*
X153915535Y-129418866D01*
X153911429Y-129370593D01*
X153906933Y-129316829D01*
X153900687Y-129284482D01*
X153889324Y-129265985D01*
X153869472Y-129253770D01*
X153857000Y-129248362D01*
X153809829Y-129228601D01*
X153809883Y-129565358D01*
G36*
X153220167Y-129458663D02*
X153217952Y-129496850D01*
X153216216Y-129554886D01*
X153215101Y-129628180D01*
X153214743Y-129705055D01*
X153214743Y-129965196D01*
X153260674Y-130011127D01*
X153292325Y-130039429D01*
X153320110Y-130050893D01*
X153358085Y-130050168D01*
X153373160Y-130048321D01*
X153420274Y-130042948D01*
X153459244Y-130039869D01*
X153468743Y-130039585D01*
X153500767Y-130041445D01*
X153546568Y-130046114D01*
X153564326Y-130048321D01*
X153607943Y-130051735D01*
X153637255Y-130044320D01*
X153666320Y-130021427D01*
X153676812Y-130011127D01*
X153722743Y-129965196D01*
X153722743Y-129478602D01*
X153685774Y-129461758D01*
X153653941Y-129449282D01*
X153635317Y-129444914D01*
X153630542Y-129458718D01*
X153626079Y-129497286D01*
X153622225Y-129556356D01*
X153619278Y-129631663D01*
X153617857Y-129695286D01*
X153613886Y-129945657D01*
X153579241Y-129950556D01*
X153547732Y-129947131D01*
X153532292Y-129936041D01*
X153527977Y-129915308D01*
X153524292Y-129871145D01*
X153521531Y-129809146D01*
X153519988Y-129734909D01*
X153519765Y-129696706D01*
X153519543Y-129476783D01*
X153473834Y-129460849D01*
X153441482Y-129450015D01*
X153423885Y-129444962D01*
X153423377Y-129444914D01*
X153421612Y-129458648D01*
X153419671Y-129496730D01*
X153417718Y-129554482D01*
X153415916Y-129627227D01*
X153414657Y-129695286D01*
X153410686Y-129945657D01*
X153323600Y-129945657D01*
X153319604Y-129717240D01*
X153315608Y-129488822D01*
X153273153Y-129466868D01*
X153241808Y-129451793D01*
X153223256Y-129444951D01*
X153222721Y-129444914D01*
X153220167Y-129458663D01*
X153220167Y-129458663D01*
G37*
X153220167Y-129458663D02*
X153217952Y-129496850D01*
X153216216Y-129554886D01*
X153215101Y-129628180D01*
X153214743Y-129705055D01*
X153214743Y-129965196D01*
X153260674Y-130011127D01*
X153292325Y-130039429D01*
X153320110Y-130050893D01*
X153358085Y-130050168D01*
X153373160Y-130048321D01*
X153420274Y-130042948D01*
X153459244Y-130039869D01*
X153468743Y-130039585D01*
X153500767Y-130041445D01*
X153546568Y-130046114D01*
X153564326Y-130048321D01*
X153607943Y-130051735D01*
X153637255Y-130044320D01*
X153666320Y-130021427D01*
X153676812Y-130011127D01*
X153722743Y-129965196D01*
X153722743Y-129478602D01*
X153685774Y-129461758D01*
X153653941Y-129449282D01*
X153635317Y-129444914D01*
X153630542Y-129458718D01*
X153626079Y-129497286D01*
X153622225Y-129556356D01*
X153619278Y-129631663D01*
X153617857Y-129695286D01*
X153613886Y-129945657D01*
X153579241Y-129950556D01*
X153547732Y-129947131D01*
X153532292Y-129936041D01*
X153527977Y-129915308D01*
X153524292Y-129871145D01*
X153521531Y-129809146D01*
X153519988Y-129734909D01*
X153519765Y-129696706D01*
X153519543Y-129476783D01*
X153473834Y-129460849D01*
X153441482Y-129450015D01*
X153423885Y-129444962D01*
X153423377Y-129444914D01*
X153421612Y-129458648D01*
X153419671Y-129496730D01*
X153417718Y-129554482D01*
X153415916Y-129627227D01*
X153414657Y-129695286D01*
X153410686Y-129945657D01*
X153323600Y-129945657D01*
X153319604Y-129717240D01*
X153315608Y-129488822D01*
X153273153Y-129466868D01*
X153241808Y-129451793D01*
X153223256Y-129444951D01*
X153222721Y-129444914D01*
X153220167Y-129458663D01*
G36*
X152855124Y-129456335D02*
X152813333Y-129475344D01*
X152780531Y-129498378D01*
X152756497Y-129524133D01*
X152739903Y-129557358D01*
X152729423Y-129602800D01*
X152723729Y-129665207D01*
X152721493Y-129749327D01*
X152721257Y-129804721D01*
X152721257Y-130020826D01*
X152758226Y-130037670D01*
X152787344Y-130049981D01*
X152801769Y-130054514D01*
X152804528Y-130041025D01*
X152806718Y-130004653D01*
X152808058Y-129951542D01*
X152808343Y-129909372D01*
X152809566Y-129848447D01*
X152812864Y-129800115D01*
X152817679Y-129770518D01*
X152821504Y-129764229D01*
X152847217Y-129770652D01*
X152887582Y-129787125D01*
X152934321Y-129809458D01*
X152979155Y-129833457D01*
X153013807Y-129854930D01*
X153029998Y-129869685D01*
X153030062Y-129869845D01*
X153028670Y-129897152D01*
X153016182Y-129923219D01*
X152994257Y-129944392D01*
X152962257Y-129951474D01*
X152934908Y-129950649D01*
X152896174Y-129950042D01*
X152875842Y-129959116D01*
X152863631Y-129983092D01*
X152862091Y-129987613D01*
X152856797Y-130021806D01*
X152870953Y-130042568D01*
X152907852Y-130052462D01*
X152947711Y-130054292D01*
X153019438Y-130040727D01*
X153056568Y-130021355D01*
X153102424Y-129975845D01*
X153126744Y-129919983D01*
X153128927Y-129860957D01*
X153108371Y-129805953D01*
X153077451Y-129771486D01*
X153046580Y-129752189D01*
X152998058Y-129727759D01*
X152941515Y-129702985D01*
X152932090Y-129699199D01*
X152869981Y-129671791D01*
X152834178Y-129647634D01*
X152822663Y-129623619D01*
X152833420Y-129596635D01*
X152851886Y-129575543D01*
X152895531Y-129549572D01*
X152943554Y-129547624D01*
X152987594Y-129567637D01*
X153019291Y-129607551D01*
X153023451Y-129617848D01*
X153047673Y-129655724D01*
X153083035Y-129683842D01*
X153127657Y-129706917D01*
X153127657Y-129641485D01*
X153125031Y-129601506D01*
X153113770Y-129569997D01*
X153088801Y-129536378D01*
X153064831Y-129510484D01*
X153027559Y-129473817D01*
X152998599Y-129454121D01*
X152967495Y-129446220D01*
X152932287Y-129444914D01*
X152855124Y-129456335D01*
X152855124Y-129456335D01*
G37*
X152855124Y-129456335D02*
X152813333Y-129475344D01*
X152780531Y-129498378D01*
X152756497Y-129524133D01*
X152739903Y-129557358D01*
X152729423Y-129602800D01*
X152723729Y-129665207D01*
X152721493Y-129749327D01*
X152721257Y-129804721D01*
X152721257Y-130020826D01*
X152758226Y-130037670D01*
X152787344Y-130049981D01*
X152801769Y-130054514D01*
X152804528Y-130041025D01*
X152806718Y-130004653D01*
X152808058Y-129951542D01*
X152808343Y-129909372D01*
X152809566Y-129848447D01*
X152812864Y-129800115D01*
X152817679Y-129770518D01*
X152821504Y-129764229D01*
X152847217Y-129770652D01*
X152887582Y-129787125D01*
X152934321Y-129809458D01*
X152979155Y-129833457D01*
X153013807Y-129854930D01*
X153029998Y-129869685D01*
X153030062Y-129869845D01*
X153028670Y-129897152D01*
X153016182Y-129923219D01*
X152994257Y-129944392D01*
X152962257Y-129951474D01*
X152934908Y-129950649D01*
X152896174Y-129950042D01*
X152875842Y-129959116D01*
X152863631Y-129983092D01*
X152862091Y-129987613D01*
X152856797Y-130021806D01*
X152870953Y-130042568D01*
X152907852Y-130052462D01*
X152947711Y-130054292D01*
X153019438Y-130040727D01*
X153056568Y-130021355D01*
X153102424Y-129975845D01*
X153126744Y-129919983D01*
X153128927Y-129860957D01*
X153108371Y-129805953D01*
X153077451Y-129771486D01*
X153046580Y-129752189D01*
X152998058Y-129727759D01*
X152941515Y-129702985D01*
X152932090Y-129699199D01*
X152869981Y-129671791D01*
X152834178Y-129647634D01*
X152822663Y-129623619D01*
X152833420Y-129596635D01*
X152851886Y-129575543D01*
X152895531Y-129549572D01*
X152943554Y-129547624D01*
X152987594Y-129567637D01*
X153019291Y-129607551D01*
X153023451Y-129617848D01*
X153047673Y-129655724D01*
X153083035Y-129683842D01*
X153127657Y-129706917D01*
X153127657Y-129641485D01*
X153125031Y-129601506D01*
X153113770Y-129569997D01*
X153088801Y-129536378D01*
X153064831Y-129510484D01*
X153027559Y-129473817D01*
X152998599Y-129454121D01*
X152967495Y-129446220D01*
X152932287Y-129444914D01*
X152855124Y-129456335D01*
G36*
X152347400Y-129458752D02*
X152330052Y-129466334D01*
X152288644Y-129499128D01*
X152253235Y-129546547D01*
X152231336Y-129597151D01*
X152227771Y-129622098D01*
X152239721Y-129656927D01*
X152265933Y-129675357D01*
X152294036Y-129686516D01*
X152306905Y-129688572D01*
X152313171Y-129673649D01*
X152325544Y-129641175D01*
X152330972Y-129626502D01*
X152361410Y-129575744D01*
X152405480Y-129550427D01*
X152461990Y-129551206D01*
X152466175Y-129552203D01*
X152496345Y-129566507D01*
X152518524Y-129594393D01*
X152533673Y-129639287D01*
X152542750Y-129704615D01*
X152546714Y-129793804D01*
X152547086Y-129841261D01*
X152547270Y-129916071D01*
X152548478Y-129967069D01*
X152551691Y-129999471D01*
X152557891Y-130018495D01*
X152568060Y-130029356D01*
X152583181Y-130037272D01*
X152584054Y-130037670D01*
X152613172Y-130049981D01*
X152627597Y-130054514D01*
X152629814Y-130040809D01*
X152631711Y-130002925D01*
X152633153Y-129945715D01*
X152634002Y-129874027D01*
X152634171Y-129821565D01*
X152633308Y-129720047D01*
X152629930Y-129643032D01*
X152622858Y-129586023D01*
X152610912Y-129544526D01*
X152592910Y-129514043D01*
X152567673Y-129490080D01*
X152542753Y-129473355D01*
X152482829Y-129451097D01*
X152413089Y-129446076D01*
X152347400Y-129458752D01*
X152347400Y-129458752D01*
G37*
X152347400Y-129458752D02*
X152330052Y-129466334D01*
X152288644Y-129499128D01*
X152253235Y-129546547D01*
X152231336Y-129597151D01*
X152227771Y-129622098D01*
X152239721Y-129656927D01*
X152265933Y-129675357D01*
X152294036Y-129686516D01*
X152306905Y-129688572D01*
X152313171Y-129673649D01*
X152325544Y-129641175D01*
X152330972Y-129626502D01*
X152361410Y-129575744D01*
X152405480Y-129550427D01*
X152461990Y-129551206D01*
X152466175Y-129552203D01*
X152496345Y-129566507D01*
X152518524Y-129594393D01*
X152533673Y-129639287D01*
X152542750Y-129704615D01*
X152546714Y-129793804D01*
X152547086Y-129841261D01*
X152547270Y-129916071D01*
X152548478Y-129967069D01*
X152551691Y-129999471D01*
X152557891Y-130018495D01*
X152568060Y-130029356D01*
X152583181Y-130037272D01*
X152584054Y-130037670D01*
X152613172Y-130049981D01*
X152627597Y-130054514D01*
X152629814Y-130040809D01*
X152631711Y-130002925D01*
X152633153Y-129945715D01*
X152634002Y-129874027D01*
X152634171Y-129821565D01*
X152633308Y-129720047D01*
X152629930Y-129643032D01*
X152622858Y-129586023D01*
X152610912Y-129544526D01*
X152592910Y-129514043D01*
X152567673Y-129490080D01*
X152542753Y-129473355D01*
X152482829Y-129451097D01*
X152413089Y-129446076D01*
X152347400Y-129458752D01*
G36*
X151846405Y-129466966D02*
X151788979Y-129504497D01*
X151761281Y-129538096D01*
X151739338Y-129599064D01*
X151737595Y-129647308D01*
X151741543Y-129711816D01*
X151890314Y-129776934D01*
X151962651Y-129810202D01*
X152009916Y-129836964D01*
X152034493Y-129860144D01*
X152038763Y-129882667D01*
X152025111Y-129907455D01*
X152010057Y-129923886D01*
X151966254Y-129950235D01*
X151918611Y-129952081D01*
X151874855Y-129931546D01*
X151842711Y-129890752D01*
X151836962Y-129876347D01*
X151809424Y-129831356D01*
X151777742Y-129812182D01*
X151734286Y-129795779D01*
X151734286Y-129857966D01*
X151738128Y-129900283D01*
X151753177Y-129935969D01*
X151784720Y-129976943D01*
X151789408Y-129982267D01*
X151824494Y-130018720D01*
X151854653Y-130038283D01*
X151892385Y-130047283D01*
X151923665Y-130050230D01*
X151979615Y-130050965D01*
X152019445Y-130041660D01*
X152044292Y-130027846D01*
X152083344Y-129997467D01*
X152110375Y-129964613D01*
X152127483Y-129923294D01*
X152136762Y-129867521D01*
X152140307Y-129791305D01*
X152140590Y-129752622D01*
X152139628Y-129706247D01*
X152051993Y-129706247D01*
X152050977Y-129731126D01*
X152048444Y-129735200D01*
X152031726Y-129729665D01*
X151995751Y-129715017D01*
X151947669Y-129694190D01*
X151937614Y-129689714D01*
X151876848Y-129658814D01*
X151843368Y-129631657D01*
X151836010Y-129606220D01*
X151853609Y-129580481D01*
X151868144Y-129569109D01*
X151920590Y-129546364D01*
X151969678Y-129550122D01*
X152010773Y-129577884D01*
X152039242Y-129627152D01*
X152048369Y-129666257D01*
X152051993Y-129706247D01*
X152139628Y-129706247D01*
X152138715Y-129662249D01*
X152131804Y-129595384D01*
X152118116Y-129546695D01*
X152095904Y-129510849D01*
X152063426Y-129482513D01*
X152049267Y-129473355D01*
X151984947Y-129449507D01*
X151914527Y-129448006D01*
X151846405Y-129466966D01*
X151846405Y-129466966D01*
G37*
X151846405Y-129466966D02*
X151788979Y-129504497D01*
X151761281Y-129538096D01*
X151739338Y-129599064D01*
X151737595Y-129647308D01*
X151741543Y-129711816D01*
X151890314Y-129776934D01*
X151962651Y-129810202D01*
X152009916Y-129836964D01*
X152034493Y-129860144D01*
X152038763Y-129882667D01*
X152025111Y-129907455D01*
X152010057Y-129923886D01*
X151966254Y-129950235D01*
X151918611Y-129952081D01*
X151874855Y-129931546D01*
X151842711Y-129890752D01*
X151836962Y-129876347D01*
X151809424Y-129831356D01*
X151777742Y-129812182D01*
X151734286Y-129795779D01*
X151734286Y-129857966D01*
X151738128Y-129900283D01*
X151753177Y-129935969D01*
X151784720Y-129976943D01*
X151789408Y-129982267D01*
X151824494Y-130018720D01*
X151854653Y-130038283D01*
X151892385Y-130047283D01*
X151923665Y-130050230D01*
X151979615Y-130050965D01*
X152019445Y-130041660D01*
X152044292Y-130027846D01*
X152083344Y-129997467D01*
X152110375Y-129964613D01*
X152127483Y-129923294D01*
X152136762Y-129867521D01*
X152140307Y-129791305D01*
X152140590Y-129752622D01*
X152139628Y-129706247D01*
X152051993Y-129706247D01*
X152050977Y-129731126D01*
X152048444Y-129735200D01*
X152031726Y-129729665D01*
X151995751Y-129715017D01*
X151947669Y-129694190D01*
X151937614Y-129689714D01*
X151876848Y-129658814D01*
X151843368Y-129631657D01*
X151836010Y-129606220D01*
X151853609Y-129580481D01*
X151868144Y-129569109D01*
X151920590Y-129546364D01*
X151969678Y-129550122D01*
X152010773Y-129577884D01*
X152039242Y-129627152D01*
X152048369Y-129666257D01*
X152051993Y-129706247D01*
X152139628Y-129706247D01*
X152138715Y-129662249D01*
X152131804Y-129595384D01*
X152118116Y-129546695D01*
X152095904Y-129510849D01*
X152063426Y-129482513D01*
X152049267Y-129473355D01*
X151984947Y-129449507D01*
X151914527Y-129448006D01*
X151846405Y-129466966D01*
G36*
X154896090Y-124742348D02*
X154817546Y-124742778D01*
X154760702Y-124743942D01*
X154721895Y-124746207D01*
X154697462Y-124749940D01*
X154683738Y-124755506D01*
X154677060Y-124763273D01*
X154673764Y-124773605D01*
X154673444Y-124774943D01*
X154668438Y-124799079D01*
X154659171Y-124846701D01*
X154646608Y-124912741D01*
X154631713Y-124992128D01*
X154615449Y-125079796D01*
X154614881Y-125082875D01*
X154598590Y-125168789D01*
X154583348Y-125244696D01*
X154570139Y-125306045D01*
X154559946Y-125348282D01*
X154553752Y-125366855D01*
X154553457Y-125367184D01*
X154535212Y-125376253D01*
X154497595Y-125391367D01*
X154448729Y-125409262D01*
X154448457Y-125409358D01*
X154386907Y-125432493D01*
X154314343Y-125461965D01*
X154245943Y-125491597D01*
X154242706Y-125493062D01*
X154131298Y-125543626D01*
X153884601Y-125375160D01*
X153808923Y-125323803D01*
X153740369Y-125277889D01*
X153682912Y-125240030D01*
X153640524Y-125212837D01*
X153617175Y-125198921D01*
X153614958Y-125197889D01*
X153597990Y-125202484D01*
X153566299Y-125224655D01*
X153518648Y-125265447D01*
X153453802Y-125325905D01*
X153387603Y-125390227D01*
X153323786Y-125453612D01*
X153266671Y-125511451D01*
X153219695Y-125560175D01*
X153186297Y-125596210D01*
X153169915Y-125615984D01*
X153169306Y-125617002D01*
X153167495Y-125630572D01*
X153174317Y-125652733D01*
X153191460Y-125686478D01*
X153220607Y-125734800D01*
X153263445Y-125800692D01*
X153320552Y-125885517D01*
X153371234Y-125960177D01*
X153416539Y-126027140D01*
X153453850Y-126082516D01*
X153480548Y-126122420D01*
X153494015Y-126142962D01*
X153494863Y-126144356D01*
X153493219Y-126164038D01*
X153480755Y-126202293D01*
X153459952Y-126251889D01*
X153452538Y-126267728D01*
X153420186Y-126338290D01*
X153385672Y-126418353D01*
X153357635Y-126487629D01*
X153337432Y-126539045D01*
X153321385Y-126578119D01*
X153312112Y-126598541D01*
X153310959Y-126600114D01*
X153293904Y-126602721D01*
X153253702Y-126609863D01*
X153195698Y-126620523D01*
X153125237Y-126633685D01*
X153047665Y-126648333D01*
X152968328Y-126663449D01*
X152892569Y-126678018D01*
X152825736Y-126691022D01*
X152773172Y-126701445D01*
X152740224Y-126708270D01*
X152732143Y-126710199D01*
X152723795Y-126714962D01*
X152717494Y-126725718D01*
X152712955Y-126746098D01*
X152709896Y-126779734D01*
X152708033Y-126830255D01*
X152707082Y-126901292D01*
X152706760Y-126996476D01*
X152706743Y-127035492D01*
X152706743Y-127352799D01*
X152782943Y-127367839D01*
X152825337Y-127375995D01*
X152888600Y-127387899D01*
X152965038Y-127402116D01*
X153046957Y-127417210D01*
X153069600Y-127421355D01*
X153145194Y-127436053D01*
X153211047Y-127450505D01*
X153261634Y-127463375D01*
X153291426Y-127473322D01*
X153296388Y-127476287D01*
X153308574Y-127497283D01*
X153326047Y-127537967D01*
X153345423Y-127590322D01*
X153349266Y-127601600D01*
X153374661Y-127671523D01*
X153406183Y-127750418D01*
X153437031Y-127821266D01*
X153437183Y-127821595D01*
X153488553Y-127932733D01*
X153319601Y-128181253D01*
X153150648Y-128429772D01*
X153367571Y-128647058D01*
X153433181Y-128711726D01*
X153493021Y-128768733D01*
X153543733Y-128815033D01*
X153581954Y-128847584D01*
X153604325Y-128863343D01*
X153607534Y-128864343D01*
X153626374Y-128856469D01*
X153664820Y-128834578D01*
X153718670Y-128801267D01*
X153783724Y-128759131D01*
X153854060Y-128711943D01*
X153925445Y-128663810D01*
X153989092Y-128621928D01*
X154040959Y-128588871D01*
X154077005Y-128567218D01*
X154093133Y-128559543D01*
X154112811Y-128566037D01*
X154150125Y-128583150D01*
X154197379Y-128607326D01*
X154202388Y-128610013D01*
X154266023Y-128641927D01*
X154309659Y-128657579D01*
X154336798Y-128657745D01*
X154350943Y-128643204D01*
X154351025Y-128643000D01*
X154358095Y-128625779D01*
X154374958Y-128584899D01*
X154400305Y-128523525D01*
X154432829Y-128444819D01*
X154471222Y-128351947D01*
X154514178Y-128248072D01*
X154555778Y-128147502D01*
X154601496Y-128036516D01*
X154643474Y-127933703D01*
X154680452Y-127842215D01*
X154711173Y-127765201D01*
X154734378Y-127705815D01*
X154748810Y-127667209D01*
X154753257Y-127652800D01*
X154742104Y-127636272D01*
X154712931Y-127609930D01*
X154674029Y-127580887D01*
X154563243Y-127489039D01*
X154476649Y-127383759D01*
X154415284Y-127267266D01*
X154380185Y-127141776D01*
X154372392Y-127009507D01*
X154378057Y-126948457D01*
X154408922Y-126821795D01*
X154462080Y-126709941D01*
X154534233Y-126614001D01*
X154622083Y-126535076D01*
X154722335Y-126474270D01*
X154831690Y-126432687D01*
X154946853Y-126411428D01*
X155064525Y-126411599D01*
X155181410Y-126434301D01*
X155294211Y-126480638D01*
X155399631Y-126551713D01*
X155443632Y-126591911D01*
X155528021Y-126695129D01*
X155586778Y-126807925D01*
X155620296Y-126927010D01*
X155628965Y-127049095D01*
X155613177Y-127170893D01*
X155573322Y-127289116D01*
X155509793Y-127400475D01*
X155422979Y-127501684D01*
X155325971Y-127580887D01*
X155285563Y-127611162D01*
X155257018Y-127637219D01*
X155246743Y-127652825D01*
X155252123Y-127669843D01*
X155267425Y-127710500D01*
X155291388Y-127771642D01*
X155322756Y-127850119D01*
X155360268Y-127942780D01*
X155402667Y-128046472D01*
X155444337Y-128147526D01*
X155490310Y-128258607D01*
X155532893Y-128361541D01*
X155570779Y-128453165D01*
X155602660Y-128530316D01*
X155627229Y-128589831D01*
X155643180Y-128628544D01*
X155649090Y-128643000D01*
X155663052Y-128657685D01*
X155690060Y-128657642D01*
X155733587Y-128642099D01*
X155797110Y-128610284D01*
X155797612Y-128610013D01*
X155845440Y-128585323D01*
X155884103Y-128567338D01*
X155905905Y-128559614D01*
X155906867Y-128559543D01*
X155923279Y-128567378D01*
X155959513Y-128589165D01*
X156011526Y-128622328D01*
X156075275Y-128664291D01*
X156145940Y-128711943D01*
X156217884Y-128760191D01*
X156282726Y-128802151D01*
X156336265Y-128835227D01*
X156374303Y-128856821D01*
X156392467Y-128864343D01*
X156409192Y-128854457D01*
X156442820Y-128826826D01*
X156489990Y-128784495D01*
X156547342Y-128730505D01*
X156611516Y-128667899D01*
X156632503Y-128646983D01*
X156849501Y-128429623D01*
X156684332Y-128187220D01*
X156634136Y-128112781D01*
X156590081Y-128045972D01*
X156554638Y-127990665D01*
X156530281Y-127950729D01*
X156519478Y-127930036D01*
X156519162Y-127928563D01*
X156524857Y-127909058D01*
X156540174Y-127869822D01*
X156562463Y-127817430D01*
X156578107Y-127782355D01*
X156607359Y-127715201D01*
X156634906Y-127647358D01*
X156656263Y-127590034D01*
X156662065Y-127572572D01*
X156678548Y-127525938D01*
X156694660Y-127489905D01*
X156703510Y-127476287D01*
X156723040Y-127467952D01*
X156765666Y-127456137D01*
X156825855Y-127442181D01*
X156898078Y-127427422D01*
X156930400Y-127421355D01*
X157012478Y-127406273D01*
X157091205Y-127391669D01*
X157158891Y-127378980D01*
X157207840Y-127369642D01*
X157217057Y-127367839D01*
X157293257Y-127352799D01*
X157293257Y-127035492D01*
X157293086Y-126931154D01*
X157292384Y-126852213D01*
X157290866Y-126795038D01*
X157288251Y-126755999D01*
X157284254Y-126731465D01*
X157278591Y-126717805D01*
X157270980Y-126711389D01*
X157267857Y-126710199D01*
X157249022Y-126705980D01*
X157207412Y-126697562D01*
X157148370Y-126685961D01*
X157077243Y-126672195D01*
X156999375Y-126657280D01*
X156920113Y-126642232D01*
X156844802Y-126628069D01*
X156778787Y-126615806D01*
X156727413Y-126606461D01*
X156696025Y-126601050D01*
X156689041Y-126600114D01*
X156682715Y-126587596D01*
X156668710Y-126554246D01*
X156649645Y-126506377D01*
X156642366Y-126487629D01*
X156613004Y-126415195D01*
X156578429Y-126335170D01*
X156547463Y-126267728D01*
X156524677Y-126216159D01*
X156509518Y-126173785D01*
X156504458Y-126147834D01*
X156505264Y-126144356D01*
X156515959Y-126127936D01*
X156540380Y-126091417D01*
X156575905Y-126038687D01*
X156619913Y-125973635D01*
X156669783Y-125900151D01*
X156679644Y-125885645D01*
X156737508Y-125799704D01*
X156780044Y-125734261D01*
X156808946Y-125686304D01*
X156825910Y-125652820D01*
X156832633Y-125630795D01*
X156830810Y-125617217D01*
X156830764Y-125617131D01*
X156816414Y-125599297D01*
X156784677Y-125564817D01*
X156738990Y-125517268D01*
X156682796Y-125460222D01*
X156619532Y-125397255D01*
X156612398Y-125390227D01*
X156532670Y-125313020D01*
X156471143Y-125256330D01*
X156426579Y-125219110D01*
X156397743Y-125200315D01*
X156385042Y-125197889D01*
X156366506Y-125208471D01*
X156328039Y-125232916D01*
X156273614Y-125268612D01*
X156207202Y-125312947D01*
X156132775Y-125363311D01*
X156115399Y-125375160D01*
X155868703Y-125543626D01*
X155757294Y-125493062D01*
X155689543Y-125463595D01*
X155616817Y-125433959D01*
X155554297Y-125410330D01*
X155551543Y-125409358D01*
X155502640Y-125391457D01*
X155464943Y-125376320D01*
X155446575Y-125367210D01*
X155446544Y-125367184D01*
X155440715Y-125350717D01*
X155430808Y-125310219D01*
X155417805Y-125250242D01*
X155402691Y-125175340D01*
X155386448Y-125090064D01*
X155385119Y-125082875D01*
X155368825Y-124995014D01*
X155353867Y-124915260D01*
X155341209Y-124848681D01*
X155331814Y-124800347D01*
X155326646Y-124775325D01*
X155326556Y-124774943D01*
X155323411Y-124764299D01*
X155317296Y-124756262D01*
X155304547Y-124750467D01*
X155281500Y-124746547D01*
X155244491Y-124744135D01*
X155189856Y-124742865D01*
X155113933Y-124742371D01*
X155013056Y-124742286D01*
X155000000Y-124742286D01*
X154896090Y-124742348D01*
X154896090Y-124742348D01*
G37*
X154896090Y-124742348D02*
X154817546Y-124742778D01*
X154760702Y-124743942D01*
X154721895Y-124746207D01*
X154697462Y-124749940D01*
X154683738Y-124755506D01*
X154677060Y-124763273D01*
X154673764Y-124773605D01*
X154673444Y-124774943D01*
X154668438Y-124799079D01*
X154659171Y-124846701D01*
X154646608Y-124912741D01*
X154631713Y-124992128D01*
X154615449Y-125079796D01*
X154614881Y-125082875D01*
X154598590Y-125168789D01*
X154583348Y-125244696D01*
X154570139Y-125306045D01*
X154559946Y-125348282D01*
X154553752Y-125366855D01*
X154553457Y-125367184D01*
X154535212Y-125376253D01*
X154497595Y-125391367D01*
X154448729Y-125409262D01*
X154448457Y-125409358D01*
X154386907Y-125432493D01*
X154314343Y-125461965D01*
X154245943Y-125491597D01*
X154242706Y-125493062D01*
X154131298Y-125543626D01*
X153884601Y-125375160D01*
X153808923Y-125323803D01*
X153740369Y-125277889D01*
X153682912Y-125240030D01*
X153640524Y-125212837D01*
X153617175Y-125198921D01*
X153614958Y-125197889D01*
X153597990Y-125202484D01*
X153566299Y-125224655D01*
X153518648Y-125265447D01*
X153453802Y-125325905D01*
X153387603Y-125390227D01*
X153323786Y-125453612D01*
X153266671Y-125511451D01*
X153219695Y-125560175D01*
X153186297Y-125596210D01*
X153169915Y-125615984D01*
X153169306Y-125617002D01*
X153167495Y-125630572D01*
X153174317Y-125652733D01*
X153191460Y-125686478D01*
X153220607Y-125734800D01*
X153263445Y-125800692D01*
X153320552Y-125885517D01*
X153371234Y-125960177D01*
X153416539Y-126027140D01*
X153453850Y-126082516D01*
X153480548Y-126122420D01*
X153494015Y-126142962D01*
X153494863Y-126144356D01*
X153493219Y-126164038D01*
X153480755Y-126202293D01*
X153459952Y-126251889D01*
X153452538Y-126267728D01*
X153420186Y-126338290D01*
X153385672Y-126418353D01*
X153357635Y-126487629D01*
X153337432Y-126539045D01*
X153321385Y-126578119D01*
X153312112Y-126598541D01*
X153310959Y-126600114D01*
X153293904Y-126602721D01*
X153253702Y-126609863D01*
X153195698Y-126620523D01*
X153125237Y-126633685D01*
X153047665Y-126648333D01*
X152968328Y-126663449D01*
X152892569Y-126678018D01*
X152825736Y-126691022D01*
X152773172Y-126701445D01*
X152740224Y-126708270D01*
X152732143Y-126710199D01*
X152723795Y-126714962D01*
X152717494Y-126725718D01*
X152712955Y-126746098D01*
X152709896Y-126779734D01*
X152708033Y-126830255D01*
X152707082Y-126901292D01*
X152706760Y-126996476D01*
X152706743Y-127035492D01*
X152706743Y-127352799D01*
X152782943Y-127367839D01*
X152825337Y-127375995D01*
X152888600Y-127387899D01*
X152965038Y-127402116D01*
X153046957Y-127417210D01*
X153069600Y-127421355D01*
X153145194Y-127436053D01*
X153211047Y-127450505D01*
X153261634Y-127463375D01*
X153291426Y-127473322D01*
X153296388Y-127476287D01*
X153308574Y-127497283D01*
X153326047Y-127537967D01*
X153345423Y-127590322D01*
X153349266Y-127601600D01*
X153374661Y-127671523D01*
X153406183Y-127750418D01*
X153437031Y-127821266D01*
X153437183Y-127821595D01*
X153488553Y-127932733D01*
X153319601Y-128181253D01*
X153150648Y-128429772D01*
X153367571Y-128647058D01*
X153433181Y-128711726D01*
X153493021Y-128768733D01*
X153543733Y-128815033D01*
X153581954Y-128847584D01*
X153604325Y-128863343D01*
X153607534Y-128864343D01*
X153626374Y-128856469D01*
X153664820Y-128834578D01*
X153718670Y-128801267D01*
X153783724Y-128759131D01*
X153854060Y-128711943D01*
X153925445Y-128663810D01*
X153989092Y-128621928D01*
X154040959Y-128588871D01*
X154077005Y-128567218D01*
X154093133Y-128559543D01*
X154112811Y-128566037D01*
X154150125Y-128583150D01*
X154197379Y-128607326D01*
X154202388Y-128610013D01*
X154266023Y-128641927D01*
X154309659Y-128657579D01*
X154336798Y-128657745D01*
X154350943Y-128643204D01*
X154351025Y-128643000D01*
X154358095Y-128625779D01*
X154374958Y-128584899D01*
X154400305Y-128523525D01*
X154432829Y-128444819D01*
X154471222Y-128351947D01*
X154514178Y-128248072D01*
X154555778Y-128147502D01*
X154601496Y-128036516D01*
X154643474Y-127933703D01*
X154680452Y-127842215D01*
X154711173Y-127765201D01*
X154734378Y-127705815D01*
X154748810Y-127667209D01*
X154753257Y-127652800D01*
X154742104Y-127636272D01*
X154712931Y-127609930D01*
X154674029Y-127580887D01*
X154563243Y-127489039D01*
X154476649Y-127383759D01*
X154415284Y-127267266D01*
X154380185Y-127141776D01*
X154372392Y-127009507D01*
X154378057Y-126948457D01*
X154408922Y-126821795D01*
X154462080Y-126709941D01*
X154534233Y-126614001D01*
X154622083Y-126535076D01*
X154722335Y-126474270D01*
X154831690Y-126432687D01*
X154946853Y-126411428D01*
X155064525Y-126411599D01*
X155181410Y-126434301D01*
X155294211Y-126480638D01*
X155399631Y-126551713D01*
X155443632Y-126591911D01*
X155528021Y-126695129D01*
X155586778Y-126807925D01*
X155620296Y-126927010D01*
X155628965Y-127049095D01*
X155613177Y-127170893D01*
X155573322Y-127289116D01*
X155509793Y-127400475D01*
X155422979Y-127501684D01*
X155325971Y-127580887D01*
X155285563Y-127611162D01*
X155257018Y-127637219D01*
X155246743Y-127652825D01*
X155252123Y-127669843D01*
X155267425Y-127710500D01*
X155291388Y-127771642D01*
X155322756Y-127850119D01*
X155360268Y-127942780D01*
X155402667Y-128046472D01*
X155444337Y-128147526D01*
X155490310Y-128258607D01*
X155532893Y-128361541D01*
X155570779Y-128453165D01*
X155602660Y-128530316D01*
X155627229Y-128589831D01*
X155643180Y-128628544D01*
X155649090Y-128643000D01*
X155663052Y-128657685D01*
X155690060Y-128657642D01*
X155733587Y-128642099D01*
X155797110Y-128610284D01*
X155797612Y-128610013D01*
X155845440Y-128585323D01*
X155884103Y-128567338D01*
X155905905Y-128559614D01*
X155906867Y-128559543D01*
X155923279Y-128567378D01*
X155959513Y-128589165D01*
X156011526Y-128622328D01*
X156075275Y-128664291D01*
X156145940Y-128711943D01*
X156217884Y-128760191D01*
X156282726Y-128802151D01*
X156336265Y-128835227D01*
X156374303Y-128856821D01*
X156392467Y-128864343D01*
X156409192Y-128854457D01*
X156442820Y-128826826D01*
X156489990Y-128784495D01*
X156547342Y-128730505D01*
X156611516Y-128667899D01*
X156632503Y-128646983D01*
X156849501Y-128429623D01*
X156684332Y-128187220D01*
X156634136Y-128112781D01*
X156590081Y-128045972D01*
X156554638Y-127990665D01*
X156530281Y-127950729D01*
X156519478Y-127930036D01*
X156519162Y-127928563D01*
X156524857Y-127909058D01*
X156540174Y-127869822D01*
X156562463Y-127817430D01*
X156578107Y-127782355D01*
X156607359Y-127715201D01*
X156634906Y-127647358D01*
X156656263Y-127590034D01*
X156662065Y-127572572D01*
X156678548Y-127525938D01*
X156694660Y-127489905D01*
X156703510Y-127476287D01*
X156723040Y-127467952D01*
X156765666Y-127456137D01*
X156825855Y-127442181D01*
X156898078Y-127427422D01*
X156930400Y-127421355D01*
X157012478Y-127406273D01*
X157091205Y-127391669D01*
X157158891Y-127378980D01*
X157207840Y-127369642D01*
X157217057Y-127367839D01*
X157293257Y-127352799D01*
X157293257Y-127035492D01*
X157293086Y-126931154D01*
X157292384Y-126852213D01*
X157290866Y-126795038D01*
X157288251Y-126755999D01*
X157284254Y-126731465D01*
X157278591Y-126717805D01*
X157270980Y-126711389D01*
X157267857Y-126710199D01*
X157249022Y-126705980D01*
X157207412Y-126697562D01*
X157148370Y-126685961D01*
X157077243Y-126672195D01*
X156999375Y-126657280D01*
X156920113Y-126642232D01*
X156844802Y-126628069D01*
X156778787Y-126615806D01*
X156727413Y-126606461D01*
X156696025Y-126601050D01*
X156689041Y-126600114D01*
X156682715Y-126587596D01*
X156668710Y-126554246D01*
X156649645Y-126506377D01*
X156642366Y-126487629D01*
X156613004Y-126415195D01*
X156578429Y-126335170D01*
X156547463Y-126267728D01*
X156524677Y-126216159D01*
X156509518Y-126173785D01*
X156504458Y-126147834D01*
X156505264Y-126144356D01*
X156515959Y-126127936D01*
X156540380Y-126091417D01*
X156575905Y-126038687D01*
X156619913Y-125973635D01*
X156669783Y-125900151D01*
X156679644Y-125885645D01*
X156737508Y-125799704D01*
X156780044Y-125734261D01*
X156808946Y-125686304D01*
X156825910Y-125652820D01*
X156832633Y-125630795D01*
X156830810Y-125617217D01*
X156830764Y-125617131D01*
X156816414Y-125599297D01*
X156784677Y-125564817D01*
X156738990Y-125517268D01*
X156682796Y-125460222D01*
X156619532Y-125397255D01*
X156612398Y-125390227D01*
X156532670Y-125313020D01*
X156471143Y-125256330D01*
X156426579Y-125219110D01*
X156397743Y-125200315D01*
X156385042Y-125197889D01*
X156366506Y-125208471D01*
X156328039Y-125232916D01*
X156273614Y-125268612D01*
X156207202Y-125312947D01*
X156132775Y-125363311D01*
X156115399Y-125375160D01*
X155868703Y-125543626D01*
X155757294Y-125493062D01*
X155689543Y-125463595D01*
X155616817Y-125433959D01*
X155554297Y-125410330D01*
X155551543Y-125409358D01*
X155502640Y-125391457D01*
X155464943Y-125376320D01*
X155446575Y-125367210D01*
X155446544Y-125367184D01*
X155440715Y-125350717D01*
X155430808Y-125310219D01*
X155417805Y-125250242D01*
X155402691Y-125175340D01*
X155386448Y-125090064D01*
X155385119Y-125082875D01*
X155368825Y-124995014D01*
X155353867Y-124915260D01*
X155341209Y-124848681D01*
X155331814Y-124800347D01*
X155326646Y-124775325D01*
X155326556Y-124774943D01*
X155323411Y-124764299D01*
X155317296Y-124756262D01*
X155304547Y-124750467D01*
X155281500Y-124746547D01*
X155244491Y-124744135D01*
X155189856Y-124742865D01*
X155113933Y-124742371D01*
X155013056Y-124742286D01*
X155000000Y-124742286D01*
X154896090Y-124742348D01*
D13*
X127508000Y-115062000D02*
X149606000Y-115062000D01*
X149606000Y-115062000D02*
X149606000Y-131826000D01*
X149606000Y-131826000D02*
X127508000Y-131826000D01*
X127508000Y-131826000D02*
X127508000Y-115062000D01*
D11*
X125833333Y-119452380D02*
X125833333Y-120166666D01*
X125880952Y-120309523D01*
X125976190Y-120404761D01*
X126119047Y-120452380D01*
X126214285Y-120452380D01*
X124833333Y-120452380D02*
X125404761Y-120452380D01*
X125119047Y-120452380D02*
X125119047Y-119452380D01*
X125214285Y-119595238D01*
X125309523Y-119690476D01*
X125404761Y-119738095D01*
X141761904Y-119952380D02*
X141761904Y-120761904D01*
X141714285Y-120857142D01*
X141666666Y-120904761D01*
X141571428Y-120952380D01*
X141380952Y-120952380D01*
X141285714Y-120904761D01*
X141238095Y-120857142D01*
X141190476Y-120761904D01*
X141190476Y-119952380D01*
X140190476Y-120952380D02*
X140761904Y-120952380D01*
X140476190Y-120952380D02*
X140476190Y-119952380D01*
X140571428Y-120095238D01*
X140666666Y-120190476D01*
X140761904Y-120238095D01*
M02*
