M48
;DRILL file {KiCad no-vcs-found-885a4c1~58~ubuntu16.04.1} date Sun Jul  9 23:31:09 2017
;FORMAT={-:-/ absolute / metric / decimal}
FMAT,2
METRIC,TZ
T1C0.400
T2C0.650
T3C1.000
T4C1.016
%
G90
G05
M71
T1
X136.5Y-117.5
X136.5Y-125.5
X139.5Y-124.
X145.Y-128.
X147.5Y-126.5
X148.5Y-128.
X152.Y-122.
X152.Y-124.
X157.5Y-128.5
X159.Y-120.5
T2
X153.23Y-118.
X154.5Y-116.73
X154.5Y-118.
X155.77Y-116.73
X155.77Y-118.
T3
X129.286Y-116.84
X129.286Y-119.38
X129.286Y-127.508
X129.286Y-130.048
T4
X122.5Y-121.5
X122.5Y-124.04
X122.5Y-126.58
T0
M30
