G04 #@! TF.GenerationSoftware,KiCad,Pcbnew,no-vcs-found-885a4c1~58~ubuntu16.04.1*
G04 #@! TF.CreationDate,2017-07-09T23:46:33+02:00*
G04 #@! TF.ProjectId,esp03_ledbar,65737030335F6C65646261722E6B6963,rev?*
G04 #@! TF.SameCoordinates,Original
G04 #@! TF.FileFunction,Soldermask,Top*
G04 #@! TF.FilePolarity,Negative*
%FSLAX46Y46*%
G04 Gerber Fmt 4.6, Leading zero omitted, Abs format (unit mm)*
G04 Created by KiCad (PCBNEW no-vcs-found-885a4c1~58~ubuntu16.04.1) date Sun Jul  9 23:46:33 2017*
%MOMM*%
%LPD*%
G01*
G04 APERTURE LIST*
%ADD10R,2.432000X2.127200*%
%ADD11O,2.432000X2.127200*%
%ADD12R,1.900000X1.650000*%
%ADD13R,2.300000X1.200000*%
%ADD14R,1.600000X1.300000*%
%ADD15R,1.300000X1.600000*%
%ADD16C,2.400000*%
%ADD17O,1.400000X1.400000*%
%ADD18R,1.400000X1.400000*%
%ADD19R,1.197560X1.197560*%
%ADD20R,1.900000X2.400000*%
%ADD21R,4.200000X2.400000*%
G04 APERTURE END LIST*
D10*
X122500000Y-121500000D03*
D11*
X122500000Y-124040000D03*
X122500000Y-126580000D03*
D12*
X156250000Y-122000000D03*
X158750000Y-122000000D03*
X147250000Y-130500000D03*
X149750000Y-130500000D03*
D13*
X132857500Y-125410000D03*
X132857500Y-123510000D03*
X129857500Y-124460000D03*
D14*
X134600000Y-119500000D03*
X132400000Y-119500000D03*
X133900000Y-128000000D03*
X136100000Y-128000000D03*
D15*
X134810000Y-125560000D03*
X134810000Y-123360000D03*
D14*
X132735000Y-121920000D03*
X130535000Y-121920000D03*
D15*
X131500000Y-129600000D03*
X131500000Y-127400000D03*
D16*
X129286000Y-119380000D03*
X129286000Y-116840000D03*
X129286000Y-130048000D03*
X129286000Y-127508000D03*
D17*
X155770000Y-116730000D03*
X155770000Y-118000000D03*
X154500000Y-116730000D03*
X154500000Y-118000000D03*
D18*
X153230000Y-118000000D03*
D19*
X132750700Y-117000000D03*
X134249300Y-117000000D03*
D18*
X138000000Y-128000000D03*
X138000000Y-126000000D03*
X138000000Y-124000000D03*
X138000000Y-122000000D03*
X138000000Y-120000000D03*
X138000000Y-118000000D03*
X138000000Y-116000000D03*
X150200000Y-128000000D03*
X150200000Y-126000000D03*
X150200000Y-124000000D03*
X150200000Y-122000000D03*
X150200000Y-120000000D03*
X150200000Y-118000000D03*
X150200000Y-116000000D03*
D20*
X153200000Y-130650000D03*
X157800000Y-130650000D03*
X155500000Y-130650000D03*
D21*
X155500000Y-124350000D03*
M02*
