G04 #@! TF.GenerationSoftware,KiCad,Pcbnew,no-vcs-found-885a4c1~58~ubuntu16.04.1*
G04 #@! TF.CreationDate,2017-07-09T23:46:33+02:00*
G04 #@! TF.ProjectId,esp03_ledbar,65737030335F6C65646261722E6B6963,rev?*
G04 #@! TF.SameCoordinates,Original
G04 #@! TF.FileFunction,Legend,Top*
G04 #@! TF.FilePolarity,Positive*
%FSLAX46Y46*%
G04 Gerber Fmt 4.6, Leading zero omitted, Abs format (unit mm)*
G04 Created by KiCad (PCBNEW no-vcs-found-885a4c1~58~ubuntu16.04.1) date Sun Jul  9 23:46:33 2017*
%MOMM*%
%LPD*%
G01*
G04 APERTURE LIST*
%ADD10C,0.120000*%
%ADD11C,0.150000*%
G04 APERTURE END LIST*
D10*
X158000000Y-121150000D02*
X157000000Y-121150000D01*
X157000000Y-122850000D02*
X158000000Y-122850000D01*
X149000000Y-129650000D02*
X148000000Y-129650000D01*
X148000000Y-131350000D02*
X149000000Y-131350000D01*
X130597500Y-122880000D02*
X130597500Y-123810000D01*
X130597500Y-126040000D02*
X130597500Y-125110000D01*
X130597500Y-126040000D02*
X133757500Y-126040000D01*
X130597500Y-122880000D02*
X132057500Y-122880000D01*
X133000000Y-118820000D02*
X134000000Y-118820000D01*
X134000000Y-120180000D02*
X133000000Y-120180000D01*
X135500000Y-128680000D02*
X134500000Y-128680000D01*
X134500000Y-127320000D02*
X135500000Y-127320000D01*
X135490000Y-123960000D02*
X135490000Y-124960000D01*
X134130000Y-124960000D02*
X134130000Y-123960000D01*
X131135000Y-121240000D02*
X132135000Y-121240000D01*
X132135000Y-122600000D02*
X131135000Y-122600000D01*
X132180000Y-128000000D02*
X132180000Y-129000000D01*
X130820000Y-129000000D02*
X130820000Y-128000000D01*
X152535000Y-119130000D02*
X152535000Y-118000000D01*
X153230000Y-119130000D02*
X152535000Y-119130000D01*
X153865000Y-117365000D02*
X153865000Y-119130000D01*
X152535000Y-117365000D02*
X153865000Y-117365000D01*
X152535000Y-115600000D02*
X152535000Y-117365000D01*
X156465000Y-115600000D02*
X152535000Y-115600000D01*
X156465000Y-119130000D02*
X156465000Y-115600000D01*
X153865000Y-119130000D02*
X156465000Y-119130000D01*
D11*
X133500000Y-117250000D02*
X133250000Y-117000000D01*
X133500000Y-116750000D02*
X133500000Y-117250000D01*
X133250000Y-117000000D02*
X133500000Y-116750000D01*
X133250000Y-116750000D02*
X133250000Y-117250000D01*
X133300000Y-117000000D02*
X133750000Y-117000000D01*
X132400000Y-116450000D02*
X134300000Y-116450000D01*
X132400000Y-117550000D02*
X134300000Y-117550000D01*
X138000000Y-129000000D02*
X138000000Y-111600000D01*
X138000000Y-111600000D02*
X150200000Y-111600000D01*
X150200000Y-111600000D02*
X150200000Y-129000000D01*
X150200000Y-129000000D02*
X138000000Y-129000000D01*
D10*
X152090000Y-131600000D02*
X152090000Y-125590000D01*
X158910000Y-129350000D02*
X158910000Y-125590000D01*
X152090000Y-125590000D02*
X153350000Y-125590000D01*
X158910000Y-125590000D02*
X157650000Y-125590000D01*
D11*
X158833333Y-124357142D02*
X158785714Y-124404761D01*
X158642857Y-124452380D01*
X158547619Y-124452380D01*
X158404761Y-124404761D01*
X158309523Y-124309523D01*
X158261904Y-124214285D01*
X158214285Y-124023809D01*
X158214285Y-123880952D01*
X158261904Y-123690476D01*
X158309523Y-123595238D01*
X158404761Y-123500000D01*
X158547619Y-123452380D01*
X158642857Y-123452380D01*
X158785714Y-123500000D01*
X158833333Y-123547619D01*
X159214285Y-123547619D02*
X159261904Y-123500000D01*
X159357142Y-123452380D01*
X159595238Y-123452380D01*
X159690476Y-123500000D01*
X159738095Y-123547619D01*
X159785714Y-123642857D01*
X159785714Y-123738095D01*
X159738095Y-123880952D01*
X159166666Y-124452380D01*
X159785714Y-124452380D01*
X144833333Y-130857142D02*
X144785714Y-130904761D01*
X144642857Y-130952380D01*
X144547619Y-130952380D01*
X144404761Y-130904761D01*
X144309523Y-130809523D01*
X144261904Y-130714285D01*
X144214285Y-130523809D01*
X144214285Y-130380952D01*
X144261904Y-130190476D01*
X144309523Y-130095238D01*
X144404761Y-130000000D01*
X144547619Y-129952380D01*
X144642857Y-129952380D01*
X144785714Y-130000000D01*
X144833333Y-130047619D01*
X145785714Y-130952380D02*
X145214285Y-130952380D01*
X145500000Y-130952380D02*
X145500000Y-129952380D01*
X145404761Y-130095238D01*
X145309523Y-130190476D01*
X145214285Y-130238095D01*
X128404761Y-123547619D02*
X128309523Y-123500000D01*
X128214285Y-123404761D01*
X128071428Y-123261904D01*
X127976190Y-123214285D01*
X127880952Y-123214285D01*
X127928571Y-123452380D02*
X127833333Y-123404761D01*
X127738095Y-123309523D01*
X127690476Y-123119047D01*
X127690476Y-122785714D01*
X127738095Y-122595238D01*
X127833333Y-122500000D01*
X127928571Y-122452380D01*
X128119047Y-122452380D01*
X128214285Y-122500000D01*
X128309523Y-122595238D01*
X128357142Y-122785714D01*
X128357142Y-123119047D01*
X128309523Y-123309523D01*
X128214285Y-123404761D01*
X128119047Y-123452380D01*
X127928571Y-123452380D01*
X129309523Y-123452380D02*
X128738095Y-123452380D01*
X129023809Y-123452380D02*
X129023809Y-122452380D01*
X128928571Y-122595238D01*
X128833333Y-122690476D01*
X128738095Y-122738095D01*
X136333333Y-119952380D02*
X136000000Y-119476190D01*
X135761904Y-119952380D02*
X135761904Y-118952380D01*
X136142857Y-118952380D01*
X136238095Y-119000000D01*
X136285714Y-119047619D01*
X136333333Y-119142857D01*
X136333333Y-119285714D01*
X136285714Y-119380952D01*
X136238095Y-119428571D01*
X136142857Y-119476190D01*
X135761904Y-119476190D01*
X137238095Y-118952380D02*
X136761904Y-118952380D01*
X136714285Y-119428571D01*
X136761904Y-119380952D01*
X136857142Y-119333333D01*
X137095238Y-119333333D01*
X137190476Y-119380952D01*
X137238095Y-119428571D01*
X137285714Y-119523809D01*
X137285714Y-119761904D01*
X137238095Y-119857142D01*
X137190476Y-119904761D01*
X137095238Y-119952380D01*
X136857142Y-119952380D01*
X136761904Y-119904761D01*
X136714285Y-119857142D01*
X134833333Y-129952380D02*
X134500000Y-129476190D01*
X134261904Y-129952380D02*
X134261904Y-128952380D01*
X134642857Y-128952380D01*
X134738095Y-129000000D01*
X134785714Y-129047619D01*
X134833333Y-129142857D01*
X134833333Y-129285714D01*
X134785714Y-129380952D01*
X134738095Y-129428571D01*
X134642857Y-129476190D01*
X134261904Y-129476190D01*
X135785714Y-129952380D02*
X135214285Y-129952380D01*
X135500000Y-129952380D02*
X135500000Y-128952380D01*
X135404761Y-129095238D01*
X135309523Y-129190476D01*
X135214285Y-129238095D01*
X137167380Y-124626666D02*
X136691190Y-124960000D01*
X137167380Y-125198095D02*
X136167380Y-125198095D01*
X136167380Y-124817142D01*
X136215000Y-124721904D01*
X136262619Y-124674285D01*
X136357857Y-124626666D01*
X136500714Y-124626666D01*
X136595952Y-124674285D01*
X136643571Y-124721904D01*
X136691190Y-124817142D01*
X136691190Y-125198095D01*
X136262619Y-124245714D02*
X136215000Y-124198095D01*
X136167380Y-124102857D01*
X136167380Y-123864761D01*
X136215000Y-123769523D01*
X136262619Y-123721904D01*
X136357857Y-123674285D01*
X136453095Y-123674285D01*
X136595952Y-123721904D01*
X137167380Y-124293333D01*
X137167380Y-123674285D01*
X134643333Y-121737380D02*
X134310000Y-121261190D01*
X134071904Y-121737380D02*
X134071904Y-120737380D01*
X134452857Y-120737380D01*
X134548095Y-120785000D01*
X134595714Y-120832619D01*
X134643333Y-120927857D01*
X134643333Y-121070714D01*
X134595714Y-121165952D01*
X134548095Y-121213571D01*
X134452857Y-121261190D01*
X134071904Y-121261190D01*
X134976666Y-120737380D02*
X135595714Y-120737380D01*
X135262380Y-121118333D01*
X135405238Y-121118333D01*
X135500476Y-121165952D01*
X135548095Y-121213571D01*
X135595714Y-121308809D01*
X135595714Y-121546904D01*
X135548095Y-121642142D01*
X135500476Y-121689761D01*
X135405238Y-121737380D01*
X135119523Y-121737380D01*
X135024285Y-121689761D01*
X134976666Y-121642142D01*
X131333333Y-131452380D02*
X131000000Y-130976190D01*
X130761904Y-131452380D02*
X130761904Y-130452380D01*
X131142857Y-130452380D01*
X131238095Y-130500000D01*
X131285714Y-130547619D01*
X131333333Y-130642857D01*
X131333333Y-130785714D01*
X131285714Y-130880952D01*
X131238095Y-130928571D01*
X131142857Y-130976190D01*
X130761904Y-130976190D01*
X132190476Y-130785714D02*
X132190476Y-131452380D01*
X131952380Y-130404761D02*
X131714285Y-131119047D01*
X132333333Y-131119047D01*
X150987380Y-117698333D02*
X151701666Y-117698333D01*
X151844523Y-117745952D01*
X151939761Y-117841190D01*
X151987380Y-117984047D01*
X151987380Y-118079285D01*
X151082619Y-117269761D02*
X151035000Y-117222142D01*
X150987380Y-117126904D01*
X150987380Y-116888809D01*
X151035000Y-116793571D01*
X151082619Y-116745952D01*
X151177857Y-116698333D01*
X151273095Y-116698333D01*
X151415952Y-116745952D01*
X151987380Y-117317380D01*
X151987380Y-116698333D01*
X135261904Y-117452380D02*
X135261904Y-116452380D01*
X135500000Y-116452380D01*
X135642857Y-116500000D01*
X135738095Y-116595238D01*
X135785714Y-116690476D01*
X135833333Y-116880952D01*
X135833333Y-117023809D01*
X135785714Y-117214285D01*
X135738095Y-117309523D01*
X135642857Y-117404761D01*
X135500000Y-117452380D01*
X135261904Y-117452380D01*
X136785714Y-117452380D02*
X136214285Y-117452380D01*
X136500000Y-117452380D02*
X136500000Y-116452380D01*
X136404761Y-116595238D01*
X136309523Y-116690476D01*
X136214285Y-116738095D01*
X141852380Y-121061904D02*
X142661904Y-121061904D01*
X142757142Y-121014285D01*
X142804761Y-120966666D01*
X142852380Y-120871428D01*
X142852380Y-120680952D01*
X142804761Y-120585714D01*
X142757142Y-120538095D01*
X142661904Y-120490476D01*
X141852380Y-120490476D01*
X141947619Y-120061904D02*
X141900000Y-120014285D01*
X141852380Y-119919047D01*
X141852380Y-119680952D01*
X141900000Y-119585714D01*
X141947619Y-119538095D01*
X142042857Y-119490476D01*
X142138095Y-119490476D01*
X142280952Y-119538095D01*
X142852380Y-120109523D01*
X142852380Y-119490476D01*
X156952380Y-128261904D02*
X157761904Y-128261904D01*
X157857142Y-128214285D01*
X157904761Y-128166666D01*
X157952380Y-128071428D01*
X157952380Y-127880952D01*
X157904761Y-127785714D01*
X157857142Y-127738095D01*
X157761904Y-127690476D01*
X156952380Y-127690476D01*
X156952380Y-127309523D02*
X156952380Y-126690476D01*
X157333333Y-127023809D01*
X157333333Y-126880952D01*
X157380952Y-126785714D01*
X157428571Y-126738095D01*
X157523809Y-126690476D01*
X157761904Y-126690476D01*
X157857142Y-126738095D01*
X157904761Y-126785714D01*
X157952380Y-126880952D01*
X157952380Y-127166666D01*
X157904761Y-127261904D01*
X157857142Y-127309523D01*
M02*
